<?xml version="1.0" encoding="UTF-8"?>
<!DOCTYPE svg PUBLIC "-//W3C//DTD SVG 1.1//EN" "http://www.w3.org/Graphics/SVG/1.1/DTD/svg11.dtd">
<!-- Creator: CorelDRAW 2019 (64-Bit) -->
<svg xmlns="http://www.w3.org/2000/svg" xml:space="preserve" width="22.5in" height="9in" version="1.1" style="shape-rendering:geometricPrecision; text-rendering:geometricPrecision; image-rendering:optimizeQuality; fill-rule:evenodd; clip-rule:evenodd"
viewBox="0 0 22500 9000"
 xmlns:xlink="http://www.w3.org/1999/xlink">
 <defs>
  <style type="text/css">
   <![CDATA[
    .fil2 {fill:#00817F}
    .fil0 {fill:#565757}
    .fil1 {fill:#FC8006}
   ]]>
  </style>
 </defs>
 <g id="Layer_x0020_1">
  <metadata id="CorelCorpID_0Corel-Layer"/>
  <g id="_906975536">
   <path class="fil0" d="M18893.37 7239.09l-81.63 0c-57.58,0 -138.01,0.46 -193.64,14.67 -35.07,9.37 -67.11,24.64 -94.47,48.53 -26.61,22.36 -42.33,52 -51.56,85.09 -15.42,55.03 -15.72,136.06 -15.72,193.2l0 373.37c0,56.24 0.31,137.26 15.72,191.24 9.22,33.08 25.24,62.42 51.56,84.79 27.36,23.43 59.4,38.85 94.47,47.92 55.63,14.51 136.06,14.82 193.64,14.82l81.63 0c58.19,0 138.32,-0.31 195.01,-14.82 35.21,-9.07 67.11,-24.49 95.22,-47.92 25.54,-21.76 41.11,-50.48 50.19,-82.68 15.13,-53.37 15.13,-137.42 15.13,-193.35l0 -375.04c0,-56.68 -0.32,-138.32 -15.87,-193.33 -8.93,-32.96 -24.79,-62.58 -51.25,-85.26 -27.21,-23.28 -59.1,-38.1 -93.42,-46.86 -55.93,-14.36 -137.42,-14.36 -195.01,-14.36zm-5137.78 0l-81.47 0c-57.9,0 -138.03,0.46 -193.79,14.67 -34.93,9.37 -67.28,24.64 -94.64,48.53 -26.61,22.36 -42.33,52 -51.54,85.09 -15.41,55.03 -15.74,136.06 -15.74,193.2l0 373.37c0,56.24 0.32,137.26 15.74,191.24 9.21,33.08 25.25,62.42 51.54,84.79 27.36,23.43 59.71,38.85 94.64,47.92 55.76,14.51 135.89,14.82 193.79,14.82l81.47 0c58.2,0 138.32,-0.31 194.85,-14.82 35.22,-9.07 67.88,-24.49 95.24,-47.92 25.56,-21.76 41.42,-50.48 50.5,-82.68 14.96,-53.37 14.96,-137.42 14.96,-193.35l0 -375.04c0,-56.68 -0.31,-138.32 -15.87,-193.33 -9.07,-32.96 -24.94,-62.58 -51.1,-85.26 -27.5,-23.28 -59.4,-38.1 -93.72,-46.86 -55.93,-14.36 -137.25,-14.36 -194.85,-14.36zm-4600.24 707.31l539.65 0 -255.01 -688.86 -31.91 0 -252.74 688.86zm-1776.11 -688.86l0 505.5 409.65 0c53.8,0 164.39,-2.58 208.68,-37.96 39.24,-31.58 47.01,-90.7 47.01,-137.56l0 -154.18c0,-46.41 -6.65,-107.02 -45.13,-138.31 -43.3,-35.24 -157.82,-37.5 -210.57,-37.5l-409.65 0zm-4955.33 1025.96l456.82 0c72.25,0 192.21,-6.65 246.93,-61.22 54.26,-54.28 61.29,-166.58 61.29,-238.53l0 -425.98c0,-72.11 -6.26,-193.04 -60.61,-248.07 -54.65,-55.03 -175.72,-61.22 -247.61,-61.22l-456.82 0 0 1035.03zm18621.91 -298.7l168.25 0 0 35.67c0,51.71 1.94,120.78 17.83,170.06 9.06,29.79 25.24,57 52.9,72.86 25.54,14.22 65.76,20.42 94.18,23.74 85.85,9.68 186.07,7.26 272.24,7.26 54.74,0 118.67,-1.21 172.03,-14.07 31.29,-7.56 64.25,-20.25 86.47,-44.28 12.54,-13.3 18.89,-37.35 22.07,-54.58 6.65,-36.26 7.71,-76.49 7.71,-113.36 0,-40.07 -1.36,-144.22 -27.06,-177.63 -22.97,-29.33 -74.37,-37.79 -109.29,-40.67l-407.09 -31.89c-86.61,-6.51 -197.72,-27.22 -259.25,-94.62 -61.51,-67.88 -72.86,-179.91 -72.86,-267.42 0,-60.76 4.09,-129.54 23.14,-187.91 15.87,-47 41.11,-87.83 77.98,-120.93 31.9,-28.43 75.29,-43.83 116.56,-52.75 75.89,-15.43 178.07,-14.67 255.63,-14.67l47.17 0c86.92,0 203.17,0 287.96,20.25 52.61,12.09 101.74,34.01 143.01,69.08 29.92,25.1 48.22,59.26 59.56,95.85 14.82,47.61 18.75,100.97 18.75,150.25 0,13.15 0,26.46 -0.61,39.46 0,8.61 -0.31,16.93 -1.06,25.39l-1.06 9.83 -167.5 0 0 -44c0,-34.46 -1.2,-74.52 -8.46,-108.53 -3.63,-17.54 -10.74,-38.4 -23.89,-51.86 -21.78,-21.15 -63.03,-30.38 -92.21,-35.06 -80.41,-12.86 -183.07,-11.2 -265.59,-11.2 -58.2,0 -202.25,2.26 -248.82,43.39 -42.93,37.79 -48.36,122.9 -48.36,175.81 0,43.24 3.92,113.98 31.58,149.65 27.21,33.71 83.74,43.83 124.11,47.15l414.94 34.32c82.37,6.67 178.53,27.97 235.21,93.28 57.44,66.35 68.18,176.11 68.18,260.14 0,62.14 -1.52,137.26 -17.08,197.29 -11.04,41.86 -29.47,80.71 -58.5,113.21 -35.53,39.92 -82.08,64.86 -133.94,78.76 -83.58,22.36 -211.17,22.21 -297.78,22.21l-65.61 0c-78.61,0 -183.82,-0.6 -260.46,-19.33 -49.13,-11.96 -93.72,-32.8 -130.91,-66.97 -37.03,-32.04 -61.37,-73.93 -75.89,-120.03 -19.04,-58.79 -24.18,-125.91 -24.18,-187.59l0 -75.57zm-429.46 259.7l0 -1148.41 166.74 0 0 1340.08 -241.72 0 -697.47 -1150.36 0 1150.36 -166.89 0 0 -1340.08 242.03 0 697.32 1148.41zm-2332.32 -701.86c0,-119.26 16.63,-273 107.92,-360.37 92.37,-87.97 257.6,-102.64 378.37,-102.64l166.58 0c119.72,0 287.81,13.46 379.59,101.13 90.39,86.92 106.25,243.99 106.25,361.89l0 446.69c0,119.11 -16.46,274.06 -108.22,360.82 -92.52,87.99 -257.28,102.2 -377.61,102.2l-166.58 0c-120.78,0 -286,-14.21 -378.37,-102.2 -91.29,-86.76 -107.92,-242.15 -107.92,-360.82l0 -446.69zm-423.87 -446.54l168.56 0 0 1340.07 -168.56 0 0 -1340.07zm-538.29 161.44l0 1178.64 -169 0 0 -1178.64 -418.42 0 0 -161.44 1007.65 0 0 161.44 -420.24 0zm-1674.46 1092.02c-87.21,-87.67 -102.78,-242.92 -102.78,-359.61l0 -893.85 168.69 0 0 876c0,50.64 -0.3,126.53 13,175.21 8.02,29.02 21.92,55.47 44.29,76.04 23.28,20.85 50.33,35.06 80.13,42.61 47.75,12.25 117.9,12.25 167.03,12.25l138.15 0c49.6,0 120.33,0 168.11,-12.25 30.37,-7.56 57.29,-21.76 80.71,-42.61 22.07,-20.26 35.37,-46.72 42.78,-75.15 13.01,-50.03 12.71,-124.54 12.71,-176.1l0 -876 168.85 0 0 893.85c0,116.7 -15.42,271.94 -102.79,359.61 -87.82,87.22 -242.61,102.79 -359.61,102.79l-159.62 0c-117.02,0 -271.96,-15.57 -359.64,-102.79zm-943.11 -73l746.61 0 0 159.62 -911.83 0 0 -1340.08 165.22 0 0 1180.46zm-1557.76 -733.92c0,-119.26 16.49,-273 107.64,-360.37 92.67,-87.97 257.89,-102.64 378.22,-102.64l166.58 0c119.72,0 287.82,13.46 379.57,101.13 90.85,86.92 106.28,243.99 106.28,361.89l0 446.69c0,119.11 -16.48,274.06 -108.24,360.82 -92.37,87.99 -257.14,102.2 -377.61,102.2l-166.58 0c-120.33,0 -285.56,-14.21 -378.22,-102.2 -91.15,-86.76 -107.64,-242.15 -107.64,-360.82l0 -446.69zm-1287.3 442.17l168.69 0 0 35.67c0,51.71 1.51,120.78 17.39,170.06 9.37,29.79 25.25,57 53.07,72.86 25.83,14.22 65.29,20.42 94.32,23.74 85.56,9.68 186.09,7.26 272.24,7.26 54.74,0 118.82,-1.21 171.74,-14.07 31.43,-7.56 64.24,-20.25 86.92,-44.28 12.7,-13.3 18.75,-37.35 22.22,-54.58 6.64,-36.26 7.56,-76.49 7.56,-113.36 0,-40.07 -1.52,-144.22 -27.52,-177.63 -22.97,-29.33 -74.21,-37.79 -109.29,-40.67l-406.47 -31.89c-87.24,-6.51 -198.35,-27.22 -259.56,-94.62 -61.53,-67.88 -72.86,-179.91 -72.86,-267.42 0,-60.76 3.78,-129.54 23.28,-187.91 15.42,-47 40.67,-87.83 77.85,-120.93 32.06,-28.43 74.99,-43.83 116.4,-52.75 75.88,-15.43 177.92,-14.67 255.47,-14.67l47.31 0c86.76,0 203.17,0 287.82,20.25 52.9,12.09 101.74,34.01 143.15,69.08 30.08,25.1 48.37,59.26 59.71,95.85 14.8,47.61 18.75,100.97 18.75,150.25 0,13.15 -0.3,26.46 -0.61,39.46 -0.3,8.61 -0.6,16.93 -0.9,25.39l-1.36 9.83 -167.65 0 0 -44c0,-34.46 -0.59,-74.52 -8.15,-108.53 -3.93,-17.54 -11.03,-38.4 -24.2,-51.86 -21.31,-21.15 -62.72,-30.38 -91.9,-35.06 -81.03,-12.86 -183.07,-11.2 -265.6,-11.2 -58.04,0 -202.56,2.26 -248.65,43.39 -43.39,37.79 -48.83,122.9 -48.83,175.81 0,43.24 3.91,113.98 32.06,149.65 26.74,33.71 83.58,43.83 123.64,47.15l414.94 34.32c82.39,6.67 178.98,27.97 235.51,93.28 57.91,66.35 67.89,176.11 67.89,260.14 0,62.14 -1.53,137.26 -17.09,197.29 -10.57,41.86 -29.17,80.71 -57.89,113.21 -36.13,39.92 -82.7,64.86 -134.08,78.76 -83.91,22.36 -211.63,22.21 -298.25,22.21l-65.31 0c-78.44,0 -184.12,-0.6 -260.59,-19.33 -48.83,-11.96 -93.58,-32.8 -130.92,-66.97 -37.18,-32.04 -61.07,-73.93 -75.89,-120.03 -19.19,-58.79 -24.33,-125.91 -24.33,-187.59l0 -75.57zm-1493.89 291.75l746.75 0 0 159.62 -911.82 0 0 -1340.08 165.07 0 0 1180.46zm-615.24 -177.93l-652.04 0 -122.97 337.56 -173.54 0 494.98 -1340.08 255.39 0 497.57 1340.08 -174 0 -125.39 -337.56zm-1269.93 -1002.53l168.32 0 0 1340.07 -168.32 0 0 -1340.07zm-401.11 748.13c39.6,14.81 75.96,37.64 99.85,73.76 33.7,51.69 39.97,130.31 39.97,190.46l0 327.74 -174.29 0 0 -282.85c0,-52.89 -4.46,-142.37 -41.87,-184.25 -36.65,-40.83 -116.32,-46.42 -166.96,-46.42l-456.52 0 0 513.51 -166.97 0 0 -1340.08 605.94 0c93.5,0 235.97,7.71 312.46,68.18 72.42,56.69 88.21,157.06 88.21,243.37l0 199.24c0,58.04 -9.59,120.78 -44.06,169.29 -24.57,33.88 -58.06,55.49 -95.76,68.04zm-1405.37 -586.68l0 1178.64 -168.4 0 0 -1178.64 -418.96 0 0 -161.44 1008.26 0 0 161.44 -420.9 0zm-1736.74 727.26l168.85 0 0 35.67c0,51.71 1.43,120.78 17.24,170.06 9.53,29.79 25.24,57 53.21,72.86 25.63,14.22 65.31,20.42 94.32,23.74 85.42,9.68 185.64,7.26 272.25,7.26 54.65,0 118.51,-1.21 171.65,-14.07 31.21,-7.56 64.32,-20.25 87.07,-44.28 12.39,-13.3 18.6,-37.35 21.61,-54.58 6.96,-36.26 7.64,-76.49 7.64,-113.36 0,-40.07 -0.99,-144.22 -27.06,-177.63 -23.14,-29.33 -74.53,-37.79 -109.37,-40.67l-406.64 -31.89c-86.83,-6.51 -198.1,-27.22 -259.69,-94.62 -61.3,-67.88 -72.71,-179.91 -72.71,-267.42 0,-60.76 4.08,-129.54 23.58,-187.91 15.35,-47 40.67,-87.83 77.69,-120.93 31.97,-28.43 74.91,-43.83 116.41,-52.75 75.96,-15.43 177.91,-14.67 255.32,-14.67l47.3 0c87,0 203.32,0 288.13,20.25 52.83,12.09 101.58,34.01 143,69.08 29.78,25.1 48.44,59.26 59.86,95.85 14.74,47.61 18.37,100.97 18.37,150.25 0,13.15 0,26.46 -0.46,39.46 -0.31,8.61 -0.68,16.93 -1.36,25.39l-0.83 9.83 -167.64 0 0 -44c0,-34.46 -0.76,-74.52 -8.1,-108.53 -4,-17.54 -10.96,-38.4 -24.33,-51.86 -21.15,-21.15 -62.59,-30.38 -91.6,-35.06 -81.03,-12.86 -183.82,-11.2 -265.68,-11.2 -58.35,0 -202.48,2.26 -248.74,43.39 -43.32,37.79 -48.82,122.9 -48.82,175.81 0,43.24 3.69,113.98 31.96,149.65 26.76,33.71 83.29,43.83 123.65,47.15l414.96 34.32c82.15,6.67 179.12,27.97 235.58,93.28 57.29,66.35 67.87,176.11 67.87,260.14 0,62.14 -1.74,137.26 -17.24,197.29 -10.65,41.86 -29.32,80.71 -57.97,113.21 -35.9,39.92 -82.53,64.86 -133.93,78.76 -84.04,22.36 -211.71,22.21 -298.32,22.21l-65.68 0c-78.54,0 -183.91,-0.6 -260.15,-19.33 -48.83,-11.96 -93.58,-32.8 -130.99,-66.97 -37.04,-32.04 -60.91,-73.93 -75.96,-120.03 -19.13,-58.79 -24.26,-125.91 -24.26,-187.59l0 -75.57zm-1229.5 364.75c-87.75,-87.67 -103.1,-242.92 -103.1,-359.61l0 -893.85 168.7 0 0 876c0,50.64 -0.29,126.53 13.17,175.21 7.78,29.02 21.68,55.47 44.13,76.04 23.14,20.85 50.26,35.06 80.35,42.61 47.39,12.25 117.83,12.25 166.58,12.25l138.32 0c49.58,0 120.41,0 168.1,-12.25 30.46,-7.56 57.6,-21.76 80.72,-42.61 21.99,-20.26 35.14,-46.72 42.56,-75.15 13.22,-50.03 13.22,-124.54 13.22,-176.1l0 -876 168.47 0 0 893.85c0,116.7 -15.42,271.94 -102.79,359.61 -87.68,87.22 -242.61,102.79 -359.63,102.79l-159.63 0c-116.62,0 -271.94,-15.57 -359.17,-102.79zm-1450.19 86.62l0 -1340.08 647.28 0c116.33,0 267.86,15.43 355.17,101.43 87.44,85.41 103.54,234.46 103.54,349.65l0 435.04c0,115.94 -16.47,265.75 -103.85,351.76 -87.68,86.02 -238.53,102.19 -354.86,102.19l-647.28 0zm-465.97 -191.68l0 -1148.41 166.89 0 0 1340.08 -241.71 0 -697.56 -1150.36 0 1150.36 -166.58 0 0 -1340.08 241.79 0 697.17 1148.41zm-1405 -1148.41l168.78 0 0 1340.07 -168.78 0 0 -1340.07zm0 1340.08l0 -1340.08z"/>
   <path class="fil1" d="M4017.12 6597.1c1444.86,-2782 4267.78,-5102.23 7541.56,-6051.41l935.88 0c-2925.36,1216.62 -5389.06,3150.32 -6858.18,6051.41l-1619.26 0z"/>
   <path class="fil2" d="M5558.16 3930.7l-983.33 -1516.33 1211.21 0 524.1 792.56c-261.67,231.89 -512.6,473.75 -751.97,723.78zm2982.1 2666.41l-1259.28 0 -702.69 -1085.82c208.85,-308.22 430.07,-603.6 663.4,-886.43l1298.57 1972.25z"/>
   <path class="fil2" d="M1505.44 4075.21l1604.54 0c-20.11,-281.92 -93.89,-491.58 -220.11,-627.03 -135.74,-146.17 -330.21,-219.04 -581.6,-219.04 -230.75,0 -420.08,72.88 -566.57,219.04 -147.76,146.18 -225.61,355.85 -236.26,627.03zm20605.63 2521.89l-551.9 0c-156.76,0 -285.86,-49.43 -385.46,-149.21 -100.83,-100.21 -150.26,-228.1 -150.26,-386.53l0 -2140.33c0,-251.24 -75.29,-435.21 -226.75,-550.69 -151.78,-115.49 -322.6,-173.24 -510.64,-173.24 -187.59,0 -354.47,57.75 -500.64,173.24 -146.48,115.48 -220.11,299.75 -220.11,550.69l0 2676.07 -1104.1 0 0 -2453.41c0,-713.06 186.68,-1191.03 558.56,-1431.37 372.3,-241.72 784.22,-372.03 1235.61,-393.33 460.44,0 885.97,120.78 1274.3,360.97 387.91,241.86 581.39,729.53 581.39,1463.74l0 2453.41zm-6055.8 -824.92c98.56,19.97 198.03,19.65 298.54,-1.06l197.43 292.36c49.12,-10.59 97.8,-23.74 145.72,-39.02l24.94 -354.63c90.39,-39.61 175.94,-89.03 254.86,-147.37l319.57 155.83c37.49,-34.17 73,-69.83 107.17,-107.18l-156.3 -319.41c58.49,-78.75 108.22,-164.17 147.67,-255.17l355.09 -24.79c15.27,-47.63 28.11,-96.28 38.7,-146.01l-295.37 -198.8c5.59,-48.36 8.47,-97.5 8.47,-147.53 0,-49.44 -2.88,-98.71 -8.47,-147.08l295.37 -198.78c-10.58,-49.6 -23.43,-98.57 -38.7,-146.18l-355.09 -24.49c-39.44,-91.01 -89.18,-176.57 -147.67,-255.01l156.3 -320.03c-34.17,-37.18 -69.68,-72.85 -107.17,-106.71l-319.57 156c-78.92,-58.36 -163.86,-108.08 -254.86,-147.54l-24.94 -354.78c-47.92,-15.58 -96.29,-28.28 -145.72,-39.31l-199.39 295.22c-47.76,-5.44 -97.2,-8.32 -147.08,-8.32 -50.04,0 -98.71,2.88 -146.93,8.32l-199.39 -295.22c-49.12,11.03 -97.8,23.72 -145.72,39.31l-24.94 354.78c-90.69,39.46 -175.96,89.18 -254.85,147.54l-319.87 -156c-36.89,33.86 -73.02,69.53 -106.59,106.71l156.02 320.03c-58.5,78.44 -107.93,164 -147.69,255.01l-355.07 24.49c-15.28,47.61 -27.82,96.58 -39.17,146.18l295.83 198.78c-5.75,48.37 -8.46,97.64 -8.46,147.08 0,50.03 2.71,99.17 8.46,147.53l-295.83 198.8c11.35,49.74 23.89,98.09 39.17,146.01l355.07 24.79c39.76,91 89.19,176.42 147.69,255.17l-156.02 319.41c33.57,37.35 69.7,73.01 106.59,107.18l319.87 -155.83c78.89,58.35 164.15,107.76 254.85,147.37l24.94 354.63c47.92,15.28 96.6,28.43 145.72,39.02l196.82 -291.31zm-1168.81 447.61c-220.39,-189.26 -377.31,-443.07 -472.68,-763.83 -94.04,-319.72 -140.9,-652.89 -140.9,-999.2 0,-283.43 38.86,-566.86 118.37,-850.15 77.39,-283.28 201.35,-518.18 368.99,-707.6 272.7,-314.26 624.62,-500.81 1054.22,-558.71 431.13,-57.6 819.17,-24.33 1165.63,102.04 397.42,157.36 691.74,430.97 881.14,819.3 178.24,344.96 267.11,749.32 267.11,1211.28 0,335.75 -36.58,624.47 -110.21,864.82 -74.06,241.42 -167.93,446.98 -283.26,615.1 -251.08,344.8 -572.01,560.06 -960.06,644.26 -346.61,94.17 -694.29,102.33 -1046.21,24.03 -351.9,-79.06 -632.78,-213.29 -842.14,-401.33zm-2052.06 -5036.82l568.37 0c146.03,0 272.69,49.43 378.82,149.06 104.46,100.53 156.92,222.96 156.92,370.5l0 4894.57 -1104.11 0 0 -5414.13zm-3120.72 2892.24l1604.99 0c-20.02,-281.92 -94.25,-491.58 -220.47,-627.03 -135.36,-146.17 -330.21,-219.04 -581.31,-219.04 -231.06,0 -420.39,72.88 -566.93,219.04 -147.39,146.18 -225.17,355.85 -236.28,627.03zm1888.42 1232.75l786.67 0c-115.33,440.94 -335.3,776.09 -660.28,1007.21 -325.47,241.88 -734.82,362.64 -1227.61,362.64 -597.78,0 -1066.41,-194.85 -1402.13,-582.59 -336.87,-377.61 -504.89,-917.41 -504.89,-1621.39 0,-671.02 162.57,-1194.96 488.71,-1572.11 337.32,-388.19 804.42,-582.73 1402.13,-582.73 629.75,0 1117.4,187.73 1463.74,565.04 335.74,386.69 503.37,926.79 503.37,1618.08l0 109.13 0 63.04c0,52.15 -5.14,88.58 -16.18,110.19l-2721.94 0c11.11,327.58 88.89,570.5 236.28,729.07 135.89,169.15 341.32,253.8 614.03,253.8 178.6,0 330.14,-37.64 456.36,-111.4 30.92,-9.68 60.62,-28.11 85.94,-55.03 27.21,-25.85 55.09,-55.03 87.21,-87.37 9.61,-30.83 49.89,-73.78 117.17,-126.38 68.08,-52.29 166.58,-79.21 291.43,-79.21zm-8208.76 0l787.04 0c-115.64,440.94 -335.74,776.09 -660.82,1007.21 -324.78,241.88 -734.65,362.64 -1227.38,362.64 -597.4,0 -1066.01,-194.85 -1401.75,-582.59 -337.25,-377.61 -504.82,-917.41 -504.82,-1621.39 0,-671.02 162.51,-1194.96 488.64,-1572.11 336.87,-388.19 804.43,-582.73 1401.75,-582.73 630.06,0 1117.33,187.73 1463.72,565.04 335.67,386.69 503.83,926.79 503.83,1618.08l0 109.13 0 63.04c0,52.15 -5.52,88.58 -16.17,110.19l-2721.94 0c10.65,327.58 88.5,570.5 236.26,729.07 135.82,169.15 340.88,253.8 613.59,253.8 178.59,0 330.53,-37.64 456.82,-111.4 30.83,-9.68 60.24,-28.11 85.86,-55.03 26.75,-25.85 55.02,-55.03 87.3,-87.37 9.22,-30.83 49.51,-73.78 116.69,-126.38 68.64,-52.29 166.6,-79.21 291.37,-79.21z"/>
  </g>
 </g>
</svg>
